<?xml version="1.0" encoding="utf-8"?>
<!-- Generator: Adobe Illustrator 15.0.2, SVG Export Plug-In  -->
<!DOCTYPE svg PUBLIC "-//W3C//DTD SVG 1.1//EN" "http://www.w3.org/Graphics/SVG/1.1/DTD/svg11.dtd" [
	<!ENTITY ns_flows "http://ns.adobe.com/Flows/1.0/">
]>
<svg version="1.1"
	 xmlns="http://www.w3.org/2000/svg" xmlns:xlink="http://www.w3.org/1999/xlink" xmlns:a="http://ns.adobe.com/AdobeSVGViewerExtensions/3.0/"
	 x="0px" y="0px" width="300px" viewBox="0 0 426 179" enable-background="new 0 0 426 179" xml:space="preserve">
<defs>
</defs>
<path fill-rule="evenodd" clip-rule="evenodd" stroke="#000000" stroke-width="0.216" stroke-miterlimit="2.6131" d="
	M328.853,79.918l14.837-73.447c0.631-3.123-2.041-4.917-5.359-6.242l22.099-0.057c2.872-0.007,4.713,1.586,5.644,4.26l9.924,28.506
	l5.521-27.398c0.6-2.972-4.271-4.6-6.377-5.277l20.773-0.153c3.057-0.023,5.623,2.129,4.991,5.276l-15.88,79.056l-2.551,0.772
	h-7.879c-2.759,0-5.492-1.408-6.362-4.108l-11.688-36.254l-6.962,33.285c-0.597,2.853,2.609,3.778,4.67,4.956l-5.165,2.119
	l-13.771,0.002C331.68,85.213,328.057,83.858,328.853,79.918L328.853,79.918z M327.157,85.135l-24.984,0.078
	c-3.607,0.011-5.057-2.567-4.336-5.952l15.742-73.938c0.465-2.189-4.141-4.314-6.212-5.017l25.251-0.096
	c3.205-0.013,3.904,2.763,3.313,5.554l-15.459,72.872C319.704,82.257,324.132,83.683,327.157,85.135L327.157,85.135z M300.529,12.05
	c-0.328,1.6-0.966,2.759-2.432,3.52c-1.033,0.536-2.206,0.623-3.312,0.961l-14.822-0.002c-1.918-0.001-3.402,0.315-4.073,0.656
	c-2.457,1.245-2.843,3.596-3.274,6.159c-0.261,1.553-0.24,2.93,0.553,4.314c0.785,1.376,1.952,2.318,3.414,2.748
	c2.51,0.738,5.061,1.331,7.549,2.143c1.953,0.637,3.822,1.367,5.634,2.34c2.624,1.409,4.8,3,6.407,5.541
	c1.411,2.23,1.829,4.474,2.081,7.073c0.235,2.421,0.241,4.82,0.082,7.248c-0.196,3.002-0.638,5.947-1.29,8.884
	c-0.625,2.804-1.393,5.59-2.504,8.242c-1.771,4.221-4.766,7.87-8.757,10.154c-1.882,1.075-3.952,1.617-6.006,2.273
	c-1.794,0.574-3.561,0.82-5.441,0.908h-30.854c-3.202,0-5.412-2.184-4.602-5.641l3.896-16.614l2.55-0.772h3.777l-0.313,2.072
	c-0.359,2.392,0.309,3.813,2.537,3.849c5.313,0.089,10.631,0.188,15.938-0.15c6.34-0.404,7.457-3.406,8.133-8.979
	c0.236-1.951,0.536-3.838-1.156-5.145c-4.992-3.856-12.062-4.162-17.621-7.278c-4.736-2.655-6.249-6.424-6.293-12.331
	c-0.071-9.523,1.656-19.974,8.146-27.313c4.027-4.555,9.979-6.703,16.001-6.698l28.48,0.027L300.529,12.05L300.529,12.05z
	 M226.31,5.736l-12.691,61.352l19.705,0.021l0.851-1.836l2.552-0.771l3.498-0.137l-3.376,15.157
	c-0.468,2.104-1.281,3.71-3.232,4.755l-3.503,0.936h-37.608c-3.584,0-4.599-3.496-3.932-6.66l15.234-72.27
	c0.34-3.006-4.548-4.792-6.348-6.027l24.575-0.147C225.515,0.175,226.954,2.526,226.31,5.736L226.31,5.736z M175.996,5.748
	l-12.688,61.34l19.857,0.021l0.039-0.085l0.626-1.744l2.551-0.773l3.534-0.146l-3.381,15.182c-0.466,2.095-1.279,3.675-3.226,4.734
	c-1.254,0.216-2.278,0.726-3.504,0.937h-56.079c-2.278,0-3.77-2.111-3.77-4.316v-16.41H99.757l-6.49,12.688
	c-0.951,1.86-1.089,3.22,0.891,4.443l5.816,3.596H76.816c-4.712,0-5.706-3.743-3.784-7.483l36.939-71.883
	c0.389-0.758,0.356-1.888-0.512-2.17l-1.241-0.404V0.881l2.551-0.772h24.549c2.451,0,3.503,2.446,3.575,4.713l1.939,61.529
	l12.712-60.525c0.316-1.504-2.06-4.882-5.032-5.599l23.175-0.118C175.582,0.089,176.743,2.135,175.996,5.748L175.996,5.748z
	 M0.043,0.22l22.913-0.111c2.326-0.012,3.562,2.354,3.582,4.519l0.349,38.914l17.817-42.66l2.551-0.772h18.666l0.36,42.942
	L81.064,5.158c0.74-1.896-2.398-4.392-4.248-4.898l21.552-0.151c3.279-0.023,4.751,3.487,3.562,6.365L69.677,84.44l-2.551,0.772
	H50.445c-2.863,0-4.984-1.687-5.001-4.62l-0.205-35.534L28.824,84.441l-2.551,0.772L9.561,85.191
	c-2.549-0.005-4.229-2.104-4.238-4.603L5.05,5.967C5.043,3.974,1.511,0.859,0.043,0.22L0.043,0.22z M108.195,47.993h11.154
	l-0.589-20.652L108.195,47.993L108.195,47.993z"/>
<path fill-rule="evenodd" clip-rule="evenodd" d="M414.782,72.721h6.197c0.074-0.271,0.13-0.54,0.167-0.811s0.056-0.529,0.056-0.779
	c0-0.645-0.186-1.185-0.557-1.621s-1.076-0.655-2.116-0.655c-1.17,0-1.99,0.313-2.464,0.936c-0.474,0.624-0.868,1.486-1.184,2.588
	C414.849,72.489,414.814,72.604,414.782,72.721L414.782,72.721z M413.993,75.932h-0.002
	C413.991,75.937,413.991,75.937,413.993,75.932L413.993,75.932z M421.676,80.234c0.223-0.125,0.437-0.281,0.64-0.468
	c0.205-0.188,0.381-0.405,0.529-0.655l-1.029,4.625c-0.111,0.286-0.242,0.515-0.391,0.681c-0.148,0.161-0.297,0.307-0.445,0.432
	c-0.056,0.041-0.106,0.078-0.153,0.108c-0.046,0.031-0.097,0.068-0.153,0.109c-0.129,0.063-0.269,0.114-0.417,0.156
	c-0.148,0.041-0.343,0.073-0.585,0.094c-0.037,0-0.074,0-0.111,0s-0.074,0-0.111,0h-5.791c-0.094,0-0.19,0-0.293,0
	c-0.102,0-0.199-0.011-0.293-0.031c-0.5-0.042-0.992-0.13-1.475-0.266c-0.483-0.135-0.873-0.348-1.17-0.639
	c-0.427-0.458-0.737-1.106-0.933-1.948s-0.292-1.783-0.292-2.821c0-0.666,0.031-1.352,0.097-2.059
	c0.065-0.706,0.162-1.423,0.292-2.15c0.372-2.162,0.952-4.178,1.74-6.049c0.79-1.87,1.629-3.023,2.521-3.46
	c0.408-0.208,1.054-0.358,1.936-0.452s1.805-0.141,2.771-0.141c0.037,0,0.078,0,0.125,0c0.046,0,0.088,0,0.125,0
	c1.021,0,1.986,0.052,2.896,0.156c0.909,0.104,1.549,0.249,1.92,0.437c0.632,0.332,1.059,0.883,1.281,1.652
	c0.223,0.769,0.334,1.59,0.334,2.462c0,0.063,0,0.12,0,0.172c0,0.053,0,0.109,0,0.172c-0.018,0.603-0.069,1.2-0.152,1.793
	c-0.084,0.592-0.172,1.127-0.265,1.605c-0.074,0.353-0.144,0.665-0.209,0.936c-0.065,0.27-0.116,0.467-0.153,0.592
	c-0.019,0.208-0.139,0.369-0.362,0.483c-0.222,0.114-0.547,0.171-0.975,0.171h-9.091c-0.076,0.434-0.146,0.838-0.209,1.216
	c-0.129,0.774-0.195,1.424-0.195,1.938c0,0.229,0.02,0.431,0.057,0.608c0.037,0.176,0.093,0.316,0.167,0.415
	c0.111,0.188,0.283,0.322,0.515,0.405c0.232,0.083,0.488,0.135,0.767,0.156c0.093,0.021,0.185,0.031,0.278,0.031
	c0.093,0,0.186,0,0.278,0h3.174c0.037,0.021,0.075,0.031,0.111,0.031c0.037,0,0.075,0,0.111,0c0.409,0,0.747-0.005,1.017-0.016
	s0.524-0.047,0.766-0.109c0.13-0.042,0.26-0.089,0.39-0.141s0.269-0.119,0.418-0.202V80.234L421.676,80.234z M409.007,65.208
	l-0.474,2.307c-0.037,0.146-0.088,0.26-0.153,0.343c-0.064,0.083-0.125,0.156-0.181,0.218c-0.019,0-0.036,0.011-0.056,0.031
	c-0.019,0.021-0.037,0.031-0.056,0.031c-0.093,0.084-0.204,0.146-0.334,0.188c-0.13,0.041-0.306,0.063-0.529,0.063h-3.619
	c-0.111,0.041-0.228,0.062-0.349,0.062c-0.12,0-0.236,0.011-0.348,0.031c-0.408,0-0.789,0.063-1.142,0.188s-0.612,0.52-0.78,1.18
	c-0.018,0.083-0.036,0.16-0.055,0.233c-0.02,0.073-0.037,0.151-0.057,0.233c-0.037,0.167-0.069,0.328-0.098,0.483
	c-0.027,0.156-0.041,0.308-0.041,0.452c0,0.271,0.084,0.53,0.25,0.779c0.168,0.244,0.511,0.453,1.03,0.619
	c0.038,0,0.069,0.005,0.098,0.016c0.028,0.01,0.061,0.025,0.098,0.047c0.335,0.083,0.706,0.171,1.113,0.265
	c0.409,0.094,0.817,0.213,1.226,0.358c0.52,0.187,1.021,0.416,1.504,0.687c0.482,0.27,0.9,0.633,1.252,1.086
	c0.186,0.207,0.32,0.519,0.404,0.935s0.125,0.873,0.125,1.366c0,0.333-0.018,0.676-0.055,1.029s-0.084,0.707-0.14,1.06
	c-0.167,0.889-0.408,1.741-0.724,2.552c-0.316,0.806-0.696,1.408-1.143,1.803c-0.52,0.479-1.066,0.842-1.643,1.091
	c-0.575,0.25-1.225,0.375-1.949,0.375h-8.464c-0.019,0-0.052,0-0.098,0s-0.088-0.011-0.126-0.031
	c-0.092-0.021-0.185-0.063-0.277-0.125c-0.094-0.063-0.158-0.135-0.195-0.219c0,0-0.005-0.005-0.014-0.015
	c-0.009-0.011-0.014-0.026-0.014-0.047c0-0.021-0.006-0.047-0.014-0.078c-0.01-0.031-0.015-0.068-0.015-0.109
	c-0.019-0.041-0.027-0.083-0.027-0.125c0-0.041,0-0.083,0-0.124c-0.019-0.021-0.028-0.053-0.028-0.094c0-0.042,0-0.083,0-0.125
	c0-0.063,0-0.119,0-0.171s0.01-0.089,0.028-0.109l0.863-3.46h0.223c-0.019,0.082-0.028,0.15-0.028,0.202s0,0.099,0,0.14
	c0,0.084,0.005,0.167,0.014,0.25c0.01,0.083,0.033,0.166,0.07,0.249c0,0.042,0.009,0.083,0.027,0.125
	c0.02,0.041,0.037,0.083,0.056,0.125c0.093,0.207,0.246,0.326,0.459,0.358c0.214,0.031,0.507,0.047,0.878,0.047
	c0.037,0,0.078,0,0.125,0s0.098,0,0.152,0c0.483,0.021,0.938,0.036,1.365,0.047c0.427,0.01,0.836,0.016,1.225,0.016
	c0.65,0,1.239-0.031,1.769-0.094c0.528-0.063,0.979-0.167,1.351-0.313s0.658-0.399,0.863-0.764c0.204-0.363,0.361-0.753,0.473-1.169
	c0.037-0.125,0.065-0.249,0.084-0.374s0.037-0.249,0.056-0.374c0-0.021,0-0.042,0-0.063s0.009-0.042,0.027-0.063
	c0-0.021,0-0.041,0-0.063c0-0.021,0-0.041,0-0.062c0-0.562-0.272-0.978-0.821-1.248c-0.547-0.27-1.192-0.498-1.936-0.686
	c-0.129-0.041-0.26-0.078-0.389-0.108c-0.131-0.031-0.26-0.068-0.391-0.109c-0.891-0.25-1.702-0.598-2.436-1.045
	c-0.733-0.446-1.1-1.189-1.1-2.229c0-0.021,0-0.042,0-0.063s0-0.041,0-0.063c0-0.021,0-0.042,0-0.063s0-0.041,0-0.062
	c0.037-0.5,0.078-0.998,0.125-1.497s0.135-0.997,0.264-1.496c0.131-0.499,0.316-0.998,0.558-1.497s0.565-0.997,0.975-1.496
	c0.056-0.104,0.126-0.208,0.208-0.313c0.084-0.104,0.182-0.217,0.293-0.343c0.297-0.29,0.673-0.556,1.127-0.794
	c0.455-0.239,0.989-0.358,1.602-0.358c0.018,0,0.037,0,0.056,0s0.037,0,0.056,0c0,0,0.01,0,0.027,0c0.02,0,0.037,0,0.057,0
	L409.007,65.208L409.007,65.208z M391.409,85.316h-3.842l0.779-4.147h3.898L391.409,85.316L391.409,85.316z"/>
<path fill-rule="evenodd" clip-rule="evenodd" fill="#E30613" d="M106.027,49.319h17.259l-0.909-31.957L106.027,49.319
	L106.027,49.319z M112.096,1.435h23.108c1.445,0,2.321,2.034,2.366,3.472l2.366,75.043c0,1.349,0.965,3.143,2.547,3.165H126.38
	c-1.383,0-2.548-1.827-2.548-3.063V62.388H99.341L92.08,76.58c-0.914,1.787-2.178,5.253,2.365,6.534H79.435
	c-3.804,0-4.016-2.934-2.638-5.615l36.937-71.878c0.768-1.493-0.164-3.892-1.637-4.084V1.435L112.096,1.435z M6.016,1.537
	l16.831-0.103c0.684-0.004,2.346,1.12,2.365,3.268l0.455,50.539L48.139,1.435h16.467l0.455,54.113L84.711,5.365
	c0.868-2.216-0.606-2.889-2.001-3.828l15.558-0.103c2.226-0.015,3.124,2.87,2.411,4.595L68.79,83.114H53.052
	c-2.114,0-3.72-1.405-3.73-3.369l-0.273-47.272L27.941,83.114l-15.739-0.022c-1.851-0.002-2.998-2.024-3.002-3.347L8.927,5.11
	C8.927,3.802,7.462,1.537,6.016,1.537L6.016,1.537z M154.675,1.537l17.012-0.103c1.979-0.012,3.838,0.039,3.001,4.085
	l-13.009,62.893l23.681,0.026c0.987,0,1.526-1.321,1.976-2.643l0.909-0.038l-3.002,13.477c-0.315,1.421-1.231,3.88-3.002,3.88
	c-12.463,0-24.928,0-37.392,0c-2.665,0-3.103-3.335-2.729-5.104l15.238-72.286C157.713,4.033,156.709,1.857,154.675,1.537
	L154.675,1.537z M204.985,1.537l17.012-0.103c1.857-0.011,3.664,0.889,3.002,4.085L211.99,68.412l23.745,0.026
	c0.846,0,1.193-1.33,1.847-2.643l0.974-0.038l-3.002,13.477c-0.255,1.434-1.231,3.88-3.002,3.88c-12.465,0-24.929,0-37.393,0
	c-2.721,0-3.11-3.297-2.729-5.104l15.238-72.286C208.038,3.972,207.02,2.05,204.985,1.537L204.985,1.537z M301.33,1.563
	l-2.092,10.184c-0.31,1.508-1.271,2.863-2.729,2.859l-15.376-0.052c-6.692-0.021-8.789,2.478-9.825,8.576
	c-0.693,4.081,0.977,6.907,4.821,8.525c5.121,1.431,10.204,2.504,14.739,5.412c3.109,1.993,5.18,4.677,5.777,8.32
	c1.281,7.835-0.186,17.211-2.775,24.555c-2.715,7.7-8.798,12.936-17.013,13.171h-30.751c-2.398,0-3.833-2.089-3.365-4.084
	l3.639-15.519h1.184c-0.565,3.163,0.382,5.921,3.729,5.921c5.367,0,10.684,0.165,16.059-0.152
	c7.189-0.425,11.014-2.008,11.918-10.925c0.252-2.484,0.636-5.244-2.729-7.045c-6.034-3.229-12.517-3.777-18.378-7.709
	c-3.793-2.544-3.957-6.885-3.957-10.924c0.514-8.652,1.308-16.704,6.459-23.993c3.51-4.726,7.733-7.147,13.828-7.147L301.33,1.563
	L301.33,1.563z M314.522,1.64l18.014-0.103c2.361-0.013,2.439,2.347,2.092,3.982l-15.466,72.898
	c-0.361,1.701,0.331,4.696,2.638,4.696h-17.013c-2.839,0-3.592-2.057-3.093-4.39l15.648-73.308
	C317.817,3.192,316.979,2.151,314.522,1.64L314.522,1.64z M345.182,1.537l15.193-0.038c2.237-0.007,3.786,1.479,4.458,3.407
	l13.01,37.368l7.46-36.653c0.498-2.444-0.902-3.198-3.275-4.084l13.829-0.103c2.172-0.016,4.14,1.738,3.73,3.778l-15.648,77.901
	h-6.732c-2.425,0-4.734-1.862-5.186-3.267l-14.647-45.435l-9.098,43.494c-0.556,2.655,0.532,4.162,3.184,5.054
	c0.304,0.103,0.303,0.154,0,0.153l-15.557-0.022c-2.218-0.003-3.563-1.883-3.185-3.755l14.83-73.409
	C348.026,3.55,347.351,2.251,345.182,1.537L345.182,1.537z"/>
<path fill-rule="evenodd" clip-rule="evenodd" stroke="#000000" stroke-width="0.216" stroke-miterlimit="2.6131" d="
	M153.122,137.179c0-10.646,4.379-16.107,7.379-16.107c1.784,0,2.757,1.547,2.757,4.276
	C163.258,131.082,159.771,135.086,153.122,137.179L153.122,137.179z M173.88,145.369c1.866-2.003,2.919-3.368,5.596-7.372
	c0.729-1.001,0.974-1.364,1.46-2.093c-3.325,16.472-5.028,26.679-7.136,42.148l10.055-2.002c0.73-7.098,1.703-12.74,3.649-22.583
	c2.189,2.018,3.081,2.745,6.163,2.745c2.445,0,4.89-0.858,7.175-2.353c9.906-2.463,21.485-9.225,26.801-19.913
	c2.677-0.53,4.298-1.167,6.406-2.351c-4.136,7.266-6.001,12.528-6.001,16.79c0,4.444,2.514,7.917,5.758,7.917
	c3.729,0,8.271-3.2,15.325-10.905v-0.031c1.058,6.647,5.49,10.846,11.758,10.846c5.817,0,10.147-2.563,17.451-10.424
	c-0.011,0.522-0.017,1.049-0.017,1.582c0,3.64,0.243,6.278,0.406,8.933l8.756-2.29c0-5.278,0.082-8.645,1.298-15.562
	c3.487-4.731,9.325-12.559,11.597-12.559c0.647,0,0.973,0.455,0.973,1.457c-0.162,1.455-0.73,3.458-1.865,6.643
	c-2.109,5.915-3.486,11.648-3.486,14.561c0,4.641,2.352,7.659,5.918,7.659c4.376,0,9.139-3.253,15.288-10.419
	c0.677,5.993,4.034,10.419,8.229,10.419c4.622,0,8.757-3.655,14.19-12.392c-0.08,2.729-0.162,12.392,5.92,12.392
	c4.001,0,7.371-3.561,14.008-10.565c0.513,5.771,4.238,10.565,8.453,10.565c2.271,0,4.947-1.289,7.541-3.655
	c2.514-2.184,4.055-4.276,6.406-8.357c0.081,12.013,5.271,12.013,6.163,12.013c4.055,0,8.757-5.111,13.947-10.829v-5.081
	c-2.595,3.261-6.082,7.341-8.353,7.341c-1.378,0-2.271-1.456-2.271-3.716c0-10.07,9.894-49.61,9.894-51.248
	c0-0.455-0.244-0.729-0.812-0.729c-2.026,0.091-5.514,0.819-9.325,1.82l-5.676,26.663c-2.027-2.275-3.244-2.912-5.758-2.912
	c-8.969,0-18.199,10.94-19.968,22.772c-5.093,5.716-6.712,7.44-8.575,7.44c-1.459,0-2.433-1.365-2.433-3.823
	c0-2.729,1.784-10.191,2.676-13.468l3.487-13.013h-2.189l-8.109,5.005c-1.297-3.367-3.648-5.097-6.893-5.097
	c-6.844,0-19.037,9.605-20.526,23.411c-1.583,2.08-6.453,8.076-8.989,8.076c-1.217,0-1.946-1.002-1.946-2.625
	c0-1.273,0.892-4.55,2.352-8.72c2.189-6.265,3.405-11.437,3.405-13.97c0-3.442-2.027-5.99-4.702-5.99
	c-5.109,0-10.866,6.628-17.11,14.332c0.811-4.596,2.595-10.328,3.974-14.515l-9.65,2.094c-3.335,8.223-5.142,14.481-5.864,20.868
	c-4.85,5.352-7.686,8.525-12.137,8.525c-4.38,0-7.299-3.095-8.271-8.646c6.649-2.275,17.434-6.37,17.434-14.925
	c0-4.641-3.242-7.734-8.107-7.734c-9.141,0-17.914,11.047-18.68,22.983c-5.744,6.167-6.479,6.88-8.404,6.88
	c-1.785,0-2.839-1.623-2.839-4.08c0-2.639,0.649-4.808,3.649-14.348l3.648-11.436l-3.567,0.182
	c-3.649,7.462-6.649,10.466-11.515,11.284c1.217-3.474,1.784-6.203,1.784-7.933c0-2.351-0.974-3.533-3.082-3.533
	c-6.081,0-7.784,8.903-7.784,11.163c0,2.274,1.055,3.821,3.406,4.989c-4.803,7.941-11.147,12.819-19.438,16.8
	c4.684-5.045,8.004-12.768,8.004-20.485c0-7.462-3.648-12.467-9.001-12.467c-3.892,0-6.892,2.002-11.027,7.553l1.541-7.553
	l-8.919,1.819c-2.226,6.099-6.339,14.468-11.515,20.965v-0.034c-4.865,5.369-7.703,8.555-12.163,8.555
	c-4.379,0-7.299-3.095-8.271-8.646c6.649-2.275,17.435-6.37,17.435-14.925c0-4.641-3.244-7.734-8.109-7.734
	c-9.142,0-17.914,11.047-18.679,22.984c-5.745,6.166-6.479,6.879-8.405,6.879c-1.784,0-2.838-1.623-2.838-4.08
	c0-2.639,0.649-4.808,3.649-14.348l3.649-11.436l-3.568,0.182c-3.649,7.462-6.649,10.466-11.515,11.284
	c1.216-3.474,1.784-6.203,1.784-7.933c0-2.351-0.973-3.533-3.082-3.533c-6.082,0-7.784,8.903-7.784,11.163
	c0,2.274,1.054,3.821,3.405,4.989c-1.327,2.194-2.896,4.457-4.703,6.66v-0.032c-3.974,4.626-6.487,7.433-9.812,7.433
	c-1.946,0-3.325-1.896-3.325-4.718c0-5.247,3.082-14.499,3.974-18.124l6.163-0.547l1.297-6.824l-5.513,0.364l4.054-15.47
	l-10.623,2.456l-3.729,13.741l-3.73,0.182l-1.297,7.008l3.08-0.183c-1.147,4.65-2.797,9.808-3.449,14.852
	c-1.305,1.75-6.537,8.354-9.2,8.354c-1.216,0-1.946-1.002-1.946-2.625c0-1.273,0.892-4.55,2.351-8.72
	c2.189-6.265,3.407-11.437,3.407-13.97c0-3.442-2.028-5.99-4.704-5.99c-5.109,0-10.866,6.628-17.109,14.332
	c0.811-4.596,2.594-10.328,3.973-14.515l-9.648,2.094c-3.335,8.222-5.142,14.48-5.864,20.867c-4.85,5.352-7.686,8.526-12.138,8.526
	c-4.379,0-7.299-3.095-8.271-8.646c6.649-2.275,17.434-6.37,17.434-14.925c0-4.641-3.243-7.734-8.108-7.734
	c-9.568,0-18.731,12.104-18.731,24.661c0,8.463,4.784,14.029,12.001,14.029c5.817,0,10.146-2.563,17.452-10.424
	c-0.012,0.522-0.018,1.049-0.018,1.582c0,3.64,0.243,6.278,0.405,8.933l8.758-2.29c0-5.278,0.08-8.645,1.297-15.562
	c3.487-4.731,9.325-12.559,11.596-12.559c0.648,0,0.973,0.455,0.973,1.457c-0.161,1.455-0.729,3.458-1.864,6.643
	c-2.109,5.915-3.487,11.648-3.487,14.561c0,4.641,2.353,7.659,5.92,7.659c4.372,0,9.133-3.25,15.277-10.408
	c0.348,6.304,3.325,10.408,7.59,10.408c4.21,0,8.503-3.01,15.542-10.814h0.027c3.974-4.459,6.164-7.537,8.109-11.451
	c2.676-0.53,4.298-1.167,6.406-2.351c-4.135,7.266-6,12.528-6,16.79c0,4.444,2.513,7.917,5.757,7.917
	c3.729,0,8.27-3.2,15.325-10.905v-0.026c1.059,6.646,5.492,10.841,11.758,10.841C161.961,156.213,166.339,153.559,173.88,145.369
	L173.88,145.369z M190.666,137.315c1.298-6.233,2.028-8.054,3.649-9.965c1.378-1.547,2.838-2.457,4.135-2.457
	c2.676,0,4.46,3.094,4.46,7.644c0,7.189-4.055,20.111-10.136,20.111c-1.783,0-3-1.001-4.541-3.821L190.666,137.315L190.666,137.315z
	 M257.97,137.179c0-10.646,4.379-16.107,7.379-16.107c1.785,0,2.757,1.547,2.757,4.276
	C268.105,131.082,264.618,135.086,257.97,137.179L257.97,137.179z M338.167,120.98c2.27,0,3.648,2.002,3.648,5.277
	c0,7.463-5.109,21.567-10.947,21.567c-2.189,0-3.73-2.184-3.73-5.369C327.138,134.994,332.328,120.98,338.167,120.98L338.167,120.98
	z M380.252,120.889c2.353,0,3.811,2.26,3.811,5.718c0,7.432-4.865,21.129-10.622,21.129c-2.271,0-3.73-2.003-3.73-5.264
	C369.71,135.223,374.818,120.889,380.252,120.889L380.252,120.889z M32.3,137.179c0-10.646,4.378-16.107,7.379-16.107
	c1.784,0,2.757,1.547,2.757,4.276C42.436,131.082,38.949,135.086,32.3,137.179L32.3,137.179z"/>
</svg>
