<?xml version="1.0" encoding="UTF-8" standalone="no"?>
<!-- Created with Inkscape (http://www.inkscape.org/) -->

<svg
   xmlns:dc="http://purl.org/dc/elements/1.1/"
   xmlns:cc="http://creativecommons.org/ns#"
   xmlns:rdf="http://www.w3.org/1999/02/22-rdf-syntax-ns#"
   xmlns:svg="http://www.w3.org/2000/svg"
   xmlns="http://www.w3.org/2000/svg"
   version="1.1"
   width="100%"
   height="100%"
   viewBox="0 0 77.523996 77.505999"
   id="icon-tractor"
   xml:space="preserve"><metadata
     id="metadata20"><rdf:RDF><cc:Work
         rdf:about=""><dc:format>image/svg+xml</dc:format><dc:type
           rdf:resource="http://purl.org/dc/dcmitype/StillImage" /><dc:title></dc:title></cc:Work></rdf:RDF></metadata><defs
     id="defs18" /><g
     transform="translate(-6.238,-6.2479994)"
     id="g4"><path
   d="m 78.304,46.304 c -3.009,0 -5.455,2.447 -5.455,5.455 0,3.01 2.445,5.457 5.455,5.457 3.009,0 5.458,-2.447 5.458,-5.457 0,-3.008 -2.45,-5.455 -5.458,-5.455 z m 0,7.002 c -0.854,0 -1.546,-0.691 -1.546,-1.547 0,-0.854 0.692,-1.545 1.546,-1.545 0.854,0 1.547,0.691 1.547,1.545 0,0.854 -0.693,1.547 -1.547,1.547 z"
   id="path6" />\n<path
   d="M 73.882,46.823 C 72.741,45.93 70.904,44.828 68.415,44.286 v -0.692 c 2.795,0.573 4.812,1.806 6.021,2.78 1.09,-0.787 2.424,-1.258 3.868,-1.258 0.784,0 2.229,0.396 2.229,0.396 l -0.059,-5.563 c 0,0 -5.692,0.131 -9.04,-0.022 v -2.073 l -0.643,-0.612 v 2.65 C 70.607,39.88 70.434,39.868 70.273,39.853 v -1.759 l -0.812,-0.857 v 2.516 c -0.76,-0.012 -1.152,-0.027 -1.152,-0.027 L 66.47,33.051 52.204,32.118 c 0,0 -0.607,0.433 -0.534,0.802 0.074,0.369 1.476,0.962 1.476,0.962 l -1.499,5.781 c -0.003,0.013 0.002,0.026 0.001,0.04 l -2.575,2.809 0.655,0.325 c 1.534,-1.297 3.515,-2.085 5.676,-2.085 4.857,0 8.808,3.951 8.808,8.806 0,0.852 -0.127,1.672 -0.354,2.451 h 7.838 c -0.003,-0.09 -0.014,-0.178 -0.014,-0.27 0,-1.953 0.853,-3.703 2.2,-4.916 z M 58.893,40.039 C 58.358,39.863 57.84,39.737 57.386,39.701 h -4.362 l 1.007,-5.855 h 4.862 v 6.193 z m 8.157,5.247 -2.467,-0.003 c -0.819,-2.2 -2.576,-3.772 -4.328,-4.681 v -6.757 h 5.289 l 1.506,6.483 v 4.958 z"
   id="path8" />\n<path
   d="m 62.744,51.036 c 0.071,-0.418 0.109,-0.848 0.109,-1.287 v -0.004 l 0.324,-0.104 v -3.402 l -1.242,-1.053 -0.487,0.155 c -0.249,-0.35 -0.526,-0.678 -0.829,-0.98 l 0.156,-0.302 -2.406,-2.405 -1.618,0.13 -0.237,0.458 c -0.415,-0.07 -0.841,-0.107 -1.275,-0.107 H 55.234 L 55.13,41.811 h -3.456 l -0.864,1.054 0.175,0.569 c -0.408,0.274 -0.788,0.589 -1.135,0.936 l -0.302,-0.156 -2.444,2.443 -0.021,1.446 0.652,0.338 c -0.073,0.426 -0.112,0.863 -0.112,1.309 v 0.004 l -0.324,0.105 v 3.455 l 1.135,1 0.575,-0.184 c 0.254,0.361 0.538,0.697 0.848,1.008 l -0.155,0.303 2.443,2.443 1.474,-0.006 0.322,-0.623 c 0.422,0.072 0.855,0.109 1.298,0.109 h 0.009 l 0.1,0.324 h 3.402 l 1.08,-1.16 -0.182,-0.568 c 0.35,-0.25 0.677,-0.527 0.979,-0.83 l 0.301,0.156 2.406,-2.404 -0.103,-1.594 -0.487,-0.252 z m -7.506,2.143 c -1.895,0 -3.43,-1.535 -3.43,-3.43 0,-1.895 1.535,-3.429 3.43,-3.429 1.895,0 3.43,1.534 3.43,3.429 0,1.895 -1.535,3.43 -3.43,3.43 z"
   id="path10" /><circle
   cx="55.209"
   cy="49.769001"
   r="0.62300003"
   id="circle12" /><polygon
   points="80.827,40.76 80.827,45.625 81.746,46.176 81.562,41.065 "
   id="polygon14" /></g><g
     transform="translate(-6.238,-6.2479994)"
     id="g16"><path
       d="m 36.891,50.862 c -1.931,0 -3.5,1.568 -3.5,3.5 0,1.93 1.569,3.502 3.5,3.502 1.931,0 3.502,-1.572 3.502,-3.502 0,-1.931 -1.572,-3.5 -3.502,-3.5 z m 0,4.492 c -0.548,0 -0.991,-0.445 -0.991,-0.992 0,-0.547 0.443,-0.992 0.991,-0.992 0.548,0 0.992,0.443 0.992,0.992 0,0.547 -0.445,0.992 -0.992,0.992 z"
       id="path18" /><path
       d="m 13.299,50.862 c -1.931,0 -3.5,1.568 -3.5,3.5 0,1.93 1.569,3.502 3.5,3.502 1.93,0 3.502,-1.572 3.502,-3.502 0,-1.931 -1.572,-3.5 -3.502,-3.5 z m 0,4.492 c -0.548,0 -0.991,-0.445 -0.991,-0.992 0,-0.547 0.443,-0.992 0.991,-0.992 0.548,0 0.992,0.443 0.992,0.992 0,0.547 -0.444,0.992 -0.992,0.992 z"
       id="path20" /><rect
       width="14.123"
       height="0.79500002"
       x="18.034"
       y="54.439999"
       id="rect22" /><rect
       width="14.123"
       height="0.79500002"
       x="18.034"
       y="53.008999"
       id="rect24" /><rect
       width="14.123"
       height="0.79500002"
       x="18.034"
       y="51.537998"
       id="rect26" /><path
       d="M 43.472,33.319 H 42.99 l -0.481,0.665 V 42.97 H 6.238 v 6.741 H 43.953 V 33.984 L 43.472,33.319 z M 14.021,48.53 H 13.38 v -4.379 h 0.642 v 4.379 z m 11.395,0 h -0.642 v -4.379 h 0.642 v 4.379 z m 11.395,0 h -0.642 v -4.379 h 0.642 v 4.379 z"
       id="path28" /></g></svg>
