<?xml version="1.0" encoding="UTF-8" standalone="no"?>
<svg id="icon-tractor" xmlns="http://www.w3.org/2000/svg" xml:space="preserve" height="100%" width="100%" version="1.1" viewBox="0 0 77.524 25.766" fill="#F6F6F6">
  <g id="g4" transform="translate(-6.238,-32.118)">
    <path id="path6" d="m78.304 46.304c-3.009 0-5.455 2.447-5.455 5.455 0 3.01 2.445 5.457 5.455 5.457 3.009 0 5.458-2.447 5.458-5.457 0-3.008-2.45-5.455-5.458-5.455zm0 7.002c-0.854 0-1.546-0.691-1.546-1.547 0-0.854 0.692-1.545 1.546-1.545s1.547 0.691 1.547 1.545-0.693 1.547-1.547 1.547z"/>\n<path id="path8" d="m73.882 46.823c-1.141-0.893-2.978-1.995-5.467-2.537v-0.692c2.795 0.573 4.812 1.806 6.021 2.78 1.09-0.787 2.424-1.258 3.868-1.258 0.784 0 2.229 0.396 2.229 0.396l-0.059-5.563s-5.692 0.131-9.04-0.022v-2.073l-0.643-0.612v2.65c-0.184-0.012-0.357-0.024-0.518-0.039v-1.759l-0.812-0.857v2.516c-0.76-0.012-1.152-0.027-1.152-0.027l-1.839-6.675-14.266-0.933s-0.607 0.433-0.534 0.802c0.074 0.369 1.476 0.962 1.476 0.962l-1.499 5.781c-0.003 0.013 0.002 0.026 0.001 0.04l-2.575 2.809 0.655 0.325c1.534-1.297 3.515-2.085 5.676-2.085 4.857 0 8.808 3.951 8.808 8.806 0 0.852-0.127 1.672-0.354 2.451h7.838c-0.003-0.09-0.014-0.178-0.014-0.27 0-1.953 0.853-3.703 2.2-4.916zm-14.989-6.784c-0.535-0.176-1.053-0.302-1.507-0.338h-4.362l1.007-5.855h4.862v6.193zm8.157 5.247-2.467-0.003c-0.819-2.2-2.576-3.772-4.328-4.681v-6.757h5.289l1.506 6.483v4.958z"/>\n<path id="path10" d="m62.744 51.036c0.071-0.418 0.109-0.848 0.109-1.287v-0.004l0.324-0.104v-3.402l-1.242-1.053-0.487 0.155c-0.249-0.35-0.526-0.678-0.829-0.98l0.156-0.302-2.406-2.405-1.618 0.13-0.237 0.458c-0.415-0.07-0.841-0.107-1.275-0.107h-0.005l-0.104-0.324h-3.456l-0.864 1.054 0.175 0.569c-0.408 0.274-0.788 0.589-1.135 0.936l-0.302-0.156-2.444 2.443-0.021 1.446 0.652 0.338c-0.073 0.426-0.112 0.863-0.112 1.309v0.004l-0.324 0.105v3.455l1.135 1 0.575-0.184c0.254 0.361 0.538 0.697 0.848 1.008l-0.155 0.303 2.443 2.443 1.474-0.006 0.322-0.623c0.422 0.072 0.855 0.109 1.298 0.109h0.009l0.1 0.324h3.402l1.08-1.16-0.182-0.568c0.35-0.25 0.677-0.527 0.979-0.83l0.301 0.156 2.406-2.404-0.103-1.594-0.487-0.252zm-7.506 2.143c-1.895 0-3.43-1.535-3.43-3.43s1.535-3.429 3.43-3.429 3.43 1.534 3.43 3.429-1.535 3.43-3.43 3.43z"/>
    <circle id="circle12" cy="49.769" cx="55.209" r="0.623"/>
    <polygon id="polygon14" points="81.562 41.065 80.827 40.76 80.827 45.625 81.746 46.176"/>
  </g>
  <g id="g16" transform="translate(-6.238,-32.118)">
    <path id="path18" d="m36.891 50.862c-1.931 0-3.5 1.568-3.5 3.5 0 1.93 1.569 3.502 3.5 3.502s3.502-1.572 3.502-3.502c0-1.931-1.572-3.5-3.502-3.5zm0 4.492c-0.548 0-0.991-0.445-0.991-0.992s0.443-0.992 0.991-0.992 0.992 0.443 0.992 0.992c0 0.547-0.445 0.992-0.992 0.992z"/>
    <path id="path20" d="m13.299 50.862c-1.931 0-3.5 1.568-3.5 3.5 0 1.93 1.569 3.502 3.5 3.502 1.93 0 3.502-1.572 3.502-3.502 0-1.931-1.572-3.5-3.502-3.5zm0 4.492c-0.548 0-0.991-0.445-0.991-0.992s0.443-0.992 0.991-0.992 0.992 0.443 0.992 0.992c0 0.547-0.444 0.992-0.992 0.992z"/>
    <rect id="rect22" y="54.44" width="14.123" x="18.034" height="0.795"/>
    <rect id="rect24" y="53.009" width="14.123" x="18.034" height="0.795"/>
    <rect id="rect26" y="51.538" width="14.123" x="18.034" height="0.795"/>
    <path id="path28" d="m43.472 33.319h-0.482l-0.481 0.665v8.986h-36.271v6.741h37.715v-15.727l-0.481-0.665zm-29.451 15.211h-0.641v-4.379h0.642v4.379zm11.395 0h-0.642v-4.379h0.642v4.379zm11.395 0h-0.642v-4.379h0.642v4.379z"/>
  </g>
</svg>
